<svg xmlns="http://www.w3.org/2000/svg" width="1049.985" height="615.353" viewBox="0 0 1049.985 615.353">
  <path id="path4152" d="M508.059,1l-.03.072-.086.175-.067.171L507.8,1.6l-.067.175-.061.179-.055.175-.049.183-.049.179-.043.183-.037.183-.03.179-.03.187-.018.187-.024.187-.012.183-.006.187v.19l.018.563.073.56.11.548.159.537.2.533.238.518.281.51.318.5.354.484.385.476.428.457.458.445.495.43.525.415.562.4.58.377.617.366.635.343.672.331.7.3.708.289.745.263.757.244.788.217.8.2.825.171.837.145.855.122.873.1.879.069.9.046.9.011.91-.011.9-.046.879-.069.873-.1.855-.122.837-.145.824-.171.8-.2.788-.217.757-.244.745-.263.708-.289.7-.3.672-.331.635-.343.617-.366.58-.377.562-.4.525-.415.495-.43.458-.445.427-.457.385-.476.354-.484.318-.5.281-.51.238-.518.2-.533.159-.537.11-.548.073-.56.018-.563V3.966l-.006-.187-.012-.179-.018-.187-.024-.183-.03-.179-.024-.183-.037-.179-.043-.179-.049-.175-.049-.179-.055-.175L542.26,1.8l-.067-.171-.067-.175-.073-.171-.073-.171L541.924,1H541.8l.067.133.073.175.067.168.073.171.061.175.055.171.055.175.049.179.049.175.043.179.03.175.037.183.018.179.031.179.012.183.018.187.006.179v.187l-.024.56-.067.552-.11.544-.153.537-.2.525-.238.518-.275.506-.311.495-.354.48-.385.472L540,9.8l-.458.442-.495.426-.519.415-.556.392-.58.381-.611.362-.635.343-.666.324-.684.3-.714.282-.733.263-.757.24-.776.221-.794.194-.818.175-.831.145-.849.122-.867.1-.873.069-.892.042-.9.015-.9-.015-.892-.042-.873-.069-.867-.1-.849-.122-.831-.145-.818-.175-.8-.194-.776-.221-.751-.24-.733-.263-.715-.282-.684-.3-.666-.324-.635-.343-.611-.362L512,11.474l-.55-.392-.519-.415-.495-.426-.458-.442-.421-.457-.385-.472-.354-.48-.311-.495-.275-.506L508,6.871l-.2-.525-.153-.537-.11-.544-.067-.552-.024-.56V3.966l.006-.187.018-.183.018-.187.018-.187.031-.179.03-.183.037-.183.043-.179.049-.179.049-.175.055-.179.061-.175.067-.179.067-.171.073-.171.079-.175.043-.1h-.128ZM483.3,1l-.075.183-.211.444-.165.434-.18.454-.165.444-.15.454-.135.444-.12.463-.12.454-.105.463-.09.463-.075.454-.075.473-.045.473-.06.473-.03.463-.015.473v.483l.045,1.429.18,1.419.271,1.39.391,1.361.481,1.352.586,1.313.692,1.293.782,1.265.872,1.226.947,1.207,1.053,1.158,1.128,1.129,1.218,1.091,1.293,1.052,1.383,1.023,1.428.956,1.519.927,1.564.869,1.654.84,1.714.763,1.744.734,1.834.666,1.864.618,1.94.55,1.97.512,2.03.434,2.06.367,2.1.309,2.15.251,2.165.174,2.21.116,2.225.029,2.24-.029,2.21-.116L531.6,36.5l2.15-.251,2.105-.309,2.06-.367,2.03-.434,1.97-.512,1.94-.55,1.864-.618,1.834-.666,1.744-.734,1.714-.763,1.654-.84,1.564-.869,1.519-.927,1.428-.956,1.383-1.023,1.293-1.052,1.218-1.091,1.128-1.129,1.053-1.158.947-1.207.872-1.226.782-1.265.692-1.294.586-1.313.481-1.352L568,13.231l.271-1.39.18-1.419.045-1.429V8.52l-.015-.473-.03-.454-.045-.473-.06-.463-.075-.454-.06-.463-.09-.454-.105-.454-.12-.444-.12-.454-.135-.444-.135-.454-.165-.434-.165-.444L567,1.724l-.18-.434L566.68,1h-.316l.165.338.18.444.165.425.18.434.15.444.135.434.135.444.12.454.12.444.105.454.075.444.09.463.045.454.075.454.03.463.045.473.015.454v.473l-.06,1.419-.165,1.4-.271,1.38-.376,1.361-.5,1.332-.586,1.313-.677,1.284-.767,1.255-.872,1.216-.947,1.2-1.037,1.158-1.128,1.12L559.6,25.51l-1.278,1.052-1.368.994-1.428.965-1.5.917-1.564.869-1.639.821-1.684.772-1.759.714-1.8.666-1.864.608-1.91.56-1.955.492-2.015.444-2.045.367-2.09.309-2.135.241-2.15.174-2.2.106-2.225.039-2.21-.039-2.2-.106-2.15-.174-2.135-.241-2.09-.309-2.045-.367-2.015-.444-1.97-.492-1.91-.56-1.849-.608-1.8-.666-1.759-.714-1.684-.772-1.639-.821-1.564-.869-1.5-.917-1.444-.965-1.353-.994-1.278-1.052-1.218-1.081-1.128-1.12L487,22.15l-.947-1.2-.872-1.216-.767-1.255L483.74,17.2l-.586-1.313-.5-1.332-.376-1.361-.271-1.38-.165-1.4-.06-1.419V8.52l.015-.473.045-.463.045-.473.045-.473.075-.454.075-.463.09-.463.105-.454.12-.454.12-.444.135-.454.15-.444.165-.454.165-.434.18-.434.2-.444L483.619,1H483.3ZM454.531,1l-.127.313-.356.757-.28.74-.3.773-.28.757-.254.773-.229.757-.2.79-.2.773-.178.79-.152.79-.127.773-.127.806-.076.806-.1.806-.051.79-.025.806v.822l.076,2.434.3,2.418.457,2.368.661,2.319.813,2.3.991,2.237,1.169,2.2,1.322,2.155,1.474,2.089,1.6,2.056,1.779,1.974L464.01,41.1l2.059,1.859,2.186,1.793,2.338,1.743,2.414,1.628,2.567,1.579,2.643,1.48,2.8,1.431,2.9,1.3,2.948,1.25,3.1,1.135,3.152,1.053,3.278.938,3.329.872,3.431.74,3.482.625,3.558.526,3.634.428,3.66.3,3.736.2,3.761.049,3.787-.049,3.736-.2,3.66-.3,3.634-.428,3.558-.526,3.482-.625,3.431-.74,3.329-.872,3.278-.938,3.151-1.053,3.1-1.135,2.948-1.25,2.9-1.3,2.8-1.431,2.643-1.48,2.567-1.579,2.414-1.628,2.338-1.743,2.186-1.793,2.059-1.859,1.906-1.924L589.66,37.2l1.6-2.056,1.474-2.089,1.322-2.155,1.169-2.2.991-2.237.813-2.3.661-2.319.457-2.368.3-2.418.076-2.434v-.806l-.025-.806-.051-.773-.076-.806-.1-.79-.127-.773-.1-.79-.152-.773-.178-.773-.2-.757L597.31,6l-.229-.757-.229-.773-.28-.74-.28-.757-.3-.74-.3-.74L595.455,1h-.534l.28.576.3.757.28.724.3.74.254.757.229.74.229.757.2.773.2.757.178.773.127.757.152.79.076.773.127.773.051.79.076.806.025.773v.806l-.1,2.418-.28,2.385-.457,2.352-.635,2.319-.839,2.27-.991,2.237-1.144,2.188-1.3,2.138L590.8,35l-1.6,2.04-1.754,1.974-1.906,1.908-2.059,1.842-2.16,1.793-2.313,1.694L576.6,47.894l-2.541,1.563-2.643,1.48-2.77,1.4L565.8,53.651l-2.974,1.217L559.772,56l-3.151,1.036-3.228.954-3.3.839-3.405.757-3.456.625-3.533.526-3.609.411-3.634.3-3.711.181-3.761.066-3.736-.066-3.711-.181-3.634-.3-3.609-.411-3.533-.526-3.456-.625-3.405-.757-3.329-.839-3.228-.954L490.213,56l-3.05-1.135-2.974-1.217-2.846-1.316-2.77-1.4-2.643-1.48-2.541-1.563-2.44-1.645-2.287-1.694-2.16-1.793-2.059-1.842-1.906-1.908-1.754-1.974-1.6-2.04-1.474-2.072-1.3-2.138L455.268,28.6l-.991-2.237-.839-2.27-.635-2.319-.457-2.352-.28-2.385-.1-2.418v-.806l.025-.806.076-.79.076-.806.076-.806.127-.773.127-.79.152-.79.178-.773.2-.773.2-.757.229-.773.254-.757.28-.773.28-.74.3-.74.33-.757L455.064,1h-.534ZM425.5,1l-.179.443-.5,1.072-.395,1.049L424,4.658,423.6,5.73l-.359,1.1L422.92,7.9l-.287,1.119-.287,1.1L422.1,11.23l-.215,1.118-.179,1.1-.179,1.142-.108,1.142-.144,1.142-.072,1.118-.036,1.142v1.165l.108,3.449.431,3.425.646,3.356.933,3.286,1.148,3.262,1.4,3.169,1.651,3.123,1.866,3.053,2.081,2.959,2.261,2.913,2.512,2.8,2.691,2.726,2.906,2.633,3.086,2.54,3.3,2.47,3.409,2.307L455.216,70l3.732,2.1,3.947,2.027,4.091,1.841,4.162,1.771,4.378,1.608,4.45,1.491,4.629,1.328,4.7,1.235,4.844,1.049,4.916.885,5.024.746,5.131.606,5.167.419,5.275.28,5.311.07,5.347-.07,5.275-.28,5.167-.419,5.131-.606,5.024-.746,4.916-.885,4.844-1.049,4.7-1.235,4.629-1.328,4.45-1.491,4.378-1.608L583,75.964l4.091-1.841,3.947-2.027,3.732-2.1,3.624-2.237,3.409-2.307,3.3-2.47,3.086-2.54,2.906-2.633,2.691-2.726,2.512-2.8,2.261-2.913,2.081-2.959,1.866-3.053,1.651-3.123,1.4-3.169L626.7,33.81l.933-3.286.646-3.356.431-3.425.108-3.449V19.152l-.036-1.142-.072-1.1-.108-1.142-.144-1.118-.179-1.1-.144-1.118-.215-1.1-.251-1.1-.287-1.072-.287-1.1-.323-1.072-.323-1.1-.395-1.049L625.664,3.8l-.431-1.049L624.8,1.7l-.323-.7h-.754l.395.816.431,1.072.395,1.025.431,1.049.359,1.072.323,1.049.323,1.072.287,1.1.287,1.072.251,1.1.179,1.072.215,1.118.108,1.1.179,1.1.072,1.119.108,1.142.036,1.1v1.142l-.144,3.426-.395,3.379-.646,3.332-.9,3.286-1.184,3.216-1.4,3.169-1.615,3.1-1.83,3.029-2.081,2.936-2.261,2.889-2.476,2.8-2.691,2.7-2.906,2.61-3.05,2.54-3.266,2.4-3.409,2.33-3.588,2.214-3.732,2.1-3.911,1.981L582.6,75.592l-4.2,1.724L574.1,78.924l-4.45,1.468-4.557,1.352-4.665,1.188L555.619,84l-4.88.886-4.988.746-5.1.583-5.131.419-5.239.256-5.311.093-5.275-.093-5.239-.256-5.131-.419-5.1-.583-4.988-.746L494.365,84l-4.808-1.072-4.7-1.188L480.3,80.392l-4.414-1.468-4.306-1.608-4.2-1.724-4.019-1.864-3.911-1.981-3.732-2.1-3.588-2.214-3.445-2.33-3.23-2.4-3.05-2.54-2.907-2.61-2.691-2.7-2.476-2.8-2.261-2.889L429.99,46.23,428.16,43.2l-1.615-3.1-1.4-3.169-1.184-3.216-.9-3.286-.646-3.332-.395-3.379-.144-3.426V19.152l.036-1.142.108-1.118.108-1.142.108-1.142.179-1.1.179-1.118.215-1.118.251-1.1.287-1.1.287-1.072.323-1.1.359-1.072.395-1.1.395-1.049.431-1.049.466-1.072L426.258,1H425.5ZM391.85,1l-.24.594-.672,1.438-.528,1.406-.576,1.469-.528,1.438-.48,1.469-.432,1.438-.384,1.5-.384,1.469-.336,1.5-.288,1.5-.24,1.469-.24,1.531-.144,1.531-.192,1.531-.1,1.5-.048,1.531v1.563l.144,4.625.576,4.594.864,4.5L388.873,45l1.537,4.375,1.873,4.25,2.209,4.188,2.5,4.094,2.785,3.969,3.025,3.906,3.362,3.75,3.6,3.656,3.89,3.531,4.13,3.406,4.418,3.313,4.562,3.094,4.85,3,4.994,2.813,5.282,2.719,5.475,2.469,5.571,2.375,5.859,2.156,5.955,2,6.195,1.781,6.291,1.656,6.483,1.406,6.579,1.188,6.723,1,6.867.813,6.915.563,7.059.375,7.107.094,7.155-.094,7.059-.375,6.915-.562,6.867-.812,6.723-1,6.579-1.187,6.483-1.406,6.291-1.656,6.195-1.781,5.955-2,5.859-2.156,5.571-2.375,5.475-2.469,5.282-2.719,4.994-2.812,4.85-3,4.562-3.094,4.418-3.312,4.13-3.406,3.89-3.531,3.6-3.656,3.362-3.75,3.026-3.906,2.785-3.969,2.5-4.094,2.209-4.187,1.873-4.25L661.11,45l1.249-4.406.864-4.5L663.8,31.5l.144-4.625V25.344l-.048-1.531-.1-1.469-.144-1.531-.192-1.5-.24-1.469-.192-1.5-.288-1.469-.336-1.469-.384-1.437-.384-1.458-.43-1.437L660.763,7.6,660.24,6.2l-.522-1.437-.584-1.406-.569-1.406-.43-.937h-1.008l.528,1.094.576,1.438.528,1.375.576,1.406.48,1.438.432,1.406.432,1.438.384,1.469.384,1.438.336,1.469.24,1.438.288,1.5.144,1.469.24,1.469.1,1.5.144,1.531.048,1.469v1.531l-.192,4.594-.528,4.531L661.4,40.48l-1.2,4.406L658.615,49.2l-1.873,4.25L654.581,57.6l-2.449,4.063L649.347,65.6l-3.025,3.875-3.313,3.75-3.6,3.625-3.89,3.5-4.082,3.406-4.37,3.219L622.5,90.1l-4.8,2.969-4.994,2.813-5.234,2.656-5.378,2.5-5.618,2.313-5.763,2.156-5.955,1.969-6.1,1.813-6.243,1.594-6.435,1.438-6.531,1.188-6.675,1-6.819.781-6.867.563-7.011.344-7.107.125-7.059-.125-7.011-.344-6.867-.562-6.819-.781-6.675-1-6.531-1.187-6.435-1.437-6.291-1.594-6.1-1.812-5.907-1.969-5.763-2.156-5.618-2.312-5.378-2.5-5.234-2.656-4.994-2.812-4.8-2.969-4.61-3.125-4.322-3.219-4.082-3.406-3.89-3.5-3.6-3.625-3.313-3.75L400.64,65.6l-2.785-3.938L395.406,57.6l-2.161-4.156-1.873-4.25-1.585-4.312-1.2-4.406-.864-4.469-.528-4.531L387,26.886V25.355l.048-1.531.144-1.5.144-1.531.144-1.531.24-1.469.24-1.5.288-1.5.336-1.469.384-1.469.384-1.437.432-1.469.48-1.437.528-1.469.528-1.406L391.9,3.23l.624-1.438.338-.783h-1.014ZM375.907,1l-.672,1.094-1.1,1.813-1.056,1.875-1.056,1.844-.96,1.875-.912,1.938-.816,1.906-.816,1.906-.768,1.938-.672,1.969-.624,1.969-.576,2-.528,1.969-.432,2.031-.432,2.031-.336,2-.288,2.063-.192,2.063-.192,2.031-.1,2.094V41.5l.24,5.344.576,5.344,1.056,5.219,1.393,5.156,1.825,5.063,2.161,4.969,2.545,4.875,2.881,4.75,3.266,4.656,3.6,4.5,3.89,4.375,4.178,4.25,4.514,4.125,4.8,3.938,5.138,3.781,5.331,3.656,5.571,3.469,5.907,3.281,6.1,3.125,6.291,2.906L441.265,131l6.723,2.531,6.963,2.344,7.2,2.094,7.3,1.875,7.491,1.625,7.684,1.406,7.78,1.188,8.02.906,8.068.688,8.164.406,8.308.125,8.356-.125,8.164-.406,8.068-.687,8.02-.906,7.78-1.187,7.683-1.406,7.491-1.625,7.3-1.875,7.2-2.094,6.963-2.344L608.718,131l6.627-2.719,6.291-2.906,6.1-3.125,5.907-3.281,5.571-3.469,5.331-3.656,5.138-3.781,4.8-3.937L659,100l4.178-4.25,3.89-4.375,3.6-4.5,3.266-4.656,2.881-4.75,2.545-4.875,2.161-4.969,1.825-5.062,1.393-5.156,1.057-5.219.576-5.344.24-5.344V39.406l-.144-2-.144-2.062-.192-2.031-.288-2-.336-2.031-.384-1.969-.432-2-.48-1.969-.624-1.969-.576-1.937-.672-1.969-.768-1.906-.72-1.906-.816-1.875-.96-1.875-.912-1.875-.96-1.844-1.057-1.812-1.153-1.844-1.076-1.518H672.9l1.153,1.781,1.1,1.813L676.17,6.42l1.008,1.844.912,1.875.864,1.844.864,1.875.768,1.906.72,1.906.672,1.906.624,1.938.528,1.938.528,1.969.432,1.969.384,1.969.288,2.031.288,1.969.24,2.031.144,2.031.1,2.031v2.031l-.192,5.375-.624,5.25-1.008,5.219-1.441,5.125-1.777,5.031-2.161,4.938-2.545,4.813-2.881,4.75-3.218,4.594-3.505,4.469-3.89,4.375-4.178,4.25-4.514,4.062-4.754,3.938-5.042,3.75-5.331,3.625-5.571,3.469-5.811,3.25-6.1,3.094-6.339,2.906-6.483,2.719-6.723,2.5-6.915,2.281-7.155,2.094-7.3,1.875-7.444,1.656-7.587,1.406-7.78,1.156-7.876.938-8.068.625-8.116.438-8.308.094-8.26-.094-8.116-.437-8.068-.625-7.876-.937-7.78-1.156-7.587-1.406-7.443-1.656-7.3-1.875-7.155-2.094-6.915-2.281-6.723-2.5-6.483-2.719-6.339-2.906-6.1-3.094-5.811-3.25-5.571-3.469-5.331-3.625L401,107.67l-4.754-3.937-4.514-4.062-4.178-4.25-3.89-4.375-3.506-4.469-3.218-4.594-2.881-4.75-2.545-4.812-2.161-4.937-1.777-5.031-1.441-5.125-1.008-5.219-.624-5.25-.192-5.344V39.419l.1-2.031.144-2.062.24-2.062.24-2.031.336-2,.384-2.031.48-1.969.528-2,.576-1.969.624-1.969.672-1.937.72-1.906.816-1.937.864-1.906.864-1.875,1.008-1.875.96-1.844,1.1-1.844,1.153-1.844L376.959,1h-1.106ZM361.62,1l-.96,1.188-1.681,2.188-1.633,2.281-1.585,2.25-1.489,2.313-1.441,2.344-1.3,2.313-1.3,2.375-1.2,2.375-1.1,2.406L346.926,25.5l-1.008,2.438-.864,2.469-.816,2.5-.72,2.5-.624,2.563-.576,2.5-.48,2.594-.384,2.594-.336,2.594-.192,2.625-.1,2.594-.1,2.625.24,6.156.72,6.031,1.2,5.969,1.633,5.875,2.065,5.781,2.449,5.625,2.929,5.563,3.266,5.438,3.7,5.281,4.082,5.125,4.418,5,4.85,4.844,5.138,4.688,5.475,4.5,5.763,4.313,6.1,4.156,6.435,3.969,6.723,3.75,6.915,3.563,7.2,3.313,7.491,3.094L437.255,161l7.924,2.656,8.164,2.375,8.4,2.156,8.548,1.875,8.692,1.594L487.918,173l9.076,1.063,9.172.75,9.364.469,9.46.125,9.508-.125,9.364-.469,9.172-.75L562.112,173l8.932-1.344,8.692-1.594,8.548-1.875,8.4-2.156,8.164-2.375L612.775,161l7.731-2.875L628,155.031l7.2-3.312,6.915-3.562,6.723-3.75,6.435-3.969,6.1-4.156,5.763-4.312,5.475-4.5,5.138-4.687,4.85-4.844,4.418-5,4.082-5.125,3.7-5.281,3.266-5.437,2.929-5.562,2.449-5.625,2.065-5.781,1.633-5.875,1.2-5.969.72-6.031.192-6.156-.048-2.625-.1-2.562-.192-2.594-.336-2.594-.384-2.531-.432-2.562-.576-2.531-.624-2.5-.72-2.5-.816-2.469-.864-2.437-.912-2.437-1.057-2.406-1.1-2.437-1.2-2.375-1.249-2.312-1.3-2.344L696,11.563l-1.537-2.34L692.878,7l-1.6-2.219L689.6,2.535,688.36.973h-1.1l1.489,1.844L690.425,5l1.585,2.25,1.537,2.25,1.489,2.281,1.345,2.281,1.345,2.313,1.2,2.344,1.2,2.344,1.1,2.406,1.008,2.375.96,2.438.864,2.469.768,2.438.672,2.469.672,2.5.528,2.5.432,2.563.384,2.531.336,2.563.24,2.594.1,2.594.048,2.563-.192,6.094-.72,6.031-1.2,5.969-1.585,5.813-2.065,5.719-2.449,5.656-2.881,5.5-3.313,5.406-3.65,5.25L686.1,112.6l-4.418,5-4.754,4.813-5.138,4.625-5.426,4.469-5.763,4.344-6.1,4.094-6.387,3.938-6.627,3.75-6.915,3.531-7.2,3.313-7.444,3.094-7.683,2.875-7.876,2.594-8.116,2.375-8.356,2.125-8.5,1.906-8.692,1.594-8.836,1.313-9.028,1.063-9.124.719-9.316.469-9.46.156-9.412-.156-9.316-.469-9.124-.719-9.028-1.062-8.836-1.312-8.692-1.594-8.5-1.906-8.356-2.125-8.116-2.375-7.876-2.594L430,157.567l-7.444-3.094-7.2-3.312-6.915-3.531-6.627-3.75-6.387-3.937-6.1-4.094-5.763-4.344-5.475-4.469L373,122.41l-4.754-4.812-4.418-5-4.082-5.094-3.65-5.25-3.313-5.406-2.881-5.5-2.449-5.656-2.028-5.728-1.585-5.812-1.2-5.969-.72-6.031-.192-6.094.048-2.625.1-2.594.24-2.594.336-2.594.384-2.562.48-2.531.528-2.562.672-2.5.672-2.5.768-2.469.96-2.5.912-2.437,1.008-2.406,1.153-2.406,1.153-2.375,1.3-2.344,1.3-2.344,1.441-2.281,1.489-2.313L358.2,6.839,359.83,4.62l1.729-2.188L362.712.963h-1.1ZM348.39,1l-1.008,1.063-2.4,2.625-2.305,2.688-2.161,2.75L338.4,12.844l-2.017,2.813-1.921,2.781-1.777,2.875-1.777,2.875-1.537,2.938-1.537,2.938L326.4,33.031,325.1,36l-1.2,3.063-1.1,3.031-.96,3.125-.864,3.094-.768,3.156-.672,3.156-.48,3.188L318.617,61l-.336,3.219-.144,3.25-.048,3.281.24,6.875.816,6.781,1.345,6.719,1.777,6.594,2.353,6.437,2.785,6.375,3.265,6.188,3.7,6.094,4.13,5.938,4.562,5.781,5.042,5.594,5.378,5.438,5.763,5.25,6.147,5.063,6.483,4.875,6.867,4.625,7.2,4.469,7.491,4.219,7.828,3.969,8.116,3.719,8.4,3.5,8.644,3.219,8.932,2.969,9.172,2.688,9.412,2.406,9.556,2.094,9.8,1.813,10.037,1.5,10.181,1.188,10.373.844,10.469.531,10.613.188,10.661-.187,10.469-.531,10.373-.844,10.181-1.187,10.037-1.5,9.8-1.812,9.557-2.094,9.412-2.406,9.172-2.687,8.932-2.969,8.644-3.219,8.4-3.5,8.116-3.719,7.828-3.969,7.491-4.219,7.2-4.469,6.867-4.625,6.483-4.875,6.147-5.062,5.763-5.25,5.378-5.437,5.042-5.594,4.562-5.781,4.13-5.938,3.7-6.094,3.266-6.187,2.785-6.375,2.353-6.437,1.777-6.594,1.3-6.719.816-6.781.288-6.875-.048-3.187-.144-3.156-.288-3.156-.432-3.125L730.5,55l-.624-3.062-.72-3.062-.864-3.031-.912-3.031-1.057-2.969-1.1-2.969-1.249-2.937-1.345-2.906-1.441-2.875-1.537-2.875-1.633-2.812-1.729-2.781-1.825-2.781-1.873-2.719L710.573,11.5l-2.161-2.688-2.161-2.625-2.209-2.594-2.4-2.562-.077-.037h-1.153l.384.375L703.1,3.9l2.305,2.594,2.113,2.625,2.161,2.656,1.921,2.656,1.921,2.719,1.873,2.781,1.681,2.75,1.633,2.813,1.489,2.875,1.489,2.844,1.3,2.875,1.249,2.938,1.153,2.938,1.057,3,.912,3,.816,3,.72,3.063.576,3.031.48,3.125.48,3.094.24,3.156.192,3.125.048,3.156-.288,6.844-.816,6.781-1.3,6.656-1.825,6.563-2.257,6.438-2.785,6.313-3.265,6.219-3.7,6.031-4.082,5.906-4.562,5.781-4.994,5.563-5.378,5.406-5.715,5.219-6.147,5.031-6.435,4.844-6.867,4.656-7.107,4.375-7.491,4.219-7.78,3.938L640,181.213l-8.308,3.469-8.644,3.219-8.884,2.938-9.124,2.719-9.364,2.375-9.508,2.063-9.8,1.813-9.989,1.5-10.133,1.156-10.277.875-10.469.531-10.565.156-10.517-.156-10.469-.531-10.277-.875-10.133-1.156-9.989-1.5-9.8-1.812-9.508-2.062-9.364-2.375-9.124-2.719-8.884-2.937-8.644-3.219-8.308-3.469-8.116-3.719-7.78-3.937-7.491-4.219-7.107-4.375-6.867-4.656-6.435-4.844-6.147-5.031-5.715-5.219-5.378-5.406-4.994-5.562-4.562-5.781-4.082-5.906-3.7-6.031-3.266-6.219-2.785-6.312-2.257-6.437-1.825-6.562-1.3-6.656-.816-6.781-.288-6.812v-.031l.048-3.25.192-3.219.336-3.219.336-3.187.576-3.156.624-3.156L321.9,48.4l.864-3.062,1.008-3.094,1.1-3.031,1.153-3.031,1.3-2.969,1.393-2.969,1.537-2.937,1.585-2.875,1.729-2.875,1.777-2.875,1.921-2.813,1.969-2.75L341.35,10.4l2.161-2.687,2.305-2.719,2.353-2.625L349.514.994h-1.153ZM336.1,1l-.72.656-3.073,3-2.929,3.063-2.929,3.094-2.737,3.156-2.641,3.188-2.545,3.281-2.4,3.281-2.305,3.344-2.161,3.344-2.017,3.438-1.921,3.438-1.777,3.531-1.633,3.531-1.537,3.563-1.345,3.625-1.249,3.625-1.1,3.688-.912,3.688-.816,3.75-.72,3.75-.48,3.781-.384,3.844-.288,3.813-.048,3.875v.031L295.71,93l.912,7.5,1.489,7.438,2.017,7.313,2.545,7.188,3.121,7.063,3.554,6.906,4.178,6.719,4.562,6.594,5.09,6.375,5.523,6.25,6,6,6.387,5.813,6.819,5.656,7.2,5.375,7.636,5.188,7.972,4.906,8.356,4.656,8.644,4.406,8.98,4.156,9.316,3.875,9.652,3.563,9.893,3.313,10.133,2.969,10.469,2.656,10.661,2.344,10.853,2,11.093,1.688,11.333,1.281,11.429.938,11.621.563,11.813.219,11.862-.219,11.621-.562,11.429-.937,11.333-1.281,11.093-1.687,10.853-2,10.661-2.344,10.469-2.656,10.133-2.969,9.893-3.312,9.652-3.562,9.316-3.875,8.98-4.156,8.644-4.406,8.356-4.656,7.972-4.906,7.636-5.187,7.2-5.375,6.819-5.656,6.387-5.812,6-6,5.523-6.25,5.09-6.375,4.562-6.594,4.178-6.719,3.554-6.906,3.121-7.062,2.545-7.187,2.017-7.312,1.489-7.437.912-7.5.288-7.625v-.031l-.048-3.75-.24-3.719-.384-3.687-.48-3.687-.672-3.687-.72-3.625-.912-3.625L750.1,56.031l-1.2-3.531-1.3-3.531L746.157,45.5l-1.537-3.469-1.681-3.406-1.777-3.344-1.969-3.344-2.017-3.281-2.161-3.281-2.257-3.219L730.358,19l-2.5-3.156-2.593-3.062-2.737-3.062-2.833-3-2.929-2.937L713.8,1h-1.1l.24.219,2.977,2.906,2.929,2.938,2.833,2.969,2.689,3.063,2.593,3.094,2.5,3.094,2.353,3.156,2.305,3.188,2.113,3.281,2.065,3.25,1.921,3.313,1.777,3.375,1.633,3.406,1.585,3.406,1.393,3.469,1.345,3.5,1.1,3.531,1.057,3.563.864,3.594.816,3.594.624,3.625.48,3.688.384,3.688.192,3.719.048,3.719-.24,7.625-.96,7.5-1.393,7.375-2.017,7.281-2.545,7.125-3.121,7.031-3.6,6.875-4.082,6.719-4.562,6.563-5.042,6.375-5.523,6.156-6,6.031-6.339,5.813-6.819,5.563-7.2,5.375-7.539,5.156-7.972,4.875-8.26,4.688-8.692,4.406-8.884,4.094-9.316,3.875-9.556,3.531L624,218.687l-10.133,2.938-10.421,2.656-10.613,2.313-10.8,2-11.045,1.656-11.237,1.313-11.429.938-11.621.563-11.765.219-11.717-.219-11.621-.562-11.429-.937-11.237-1.312-11.045-1.656-10.8-2-10.661-2.312-10.373-2.656-10.133-2.937-9.844-3.312-9.556-3.531-9.316-3.875-8.932-4.094-8.644-4.406-8.26-4.687-7.972-4.875-7.539-5.156-7.2-5.375-6.819-5.562L335.485,168l-6-6.031-5.523-6.156-5.042-6.375-4.562-6.562-4.082-6.719-3.6-6.875-3.121-7.031-2.545-7.125-2.017-7.281-1.441-7.375-.912-7.5-.24-7.625.048-3.844.24-3.812.336-3.844.528-3.75.672-3.75.816-3.719,1.008-3.687L301.1,55.28l1.249-3.594,1.393-3.625,1.489-3.531L306.864,41l1.777-3.5,1.873-3.437,2.017-3.406,2.209-3.344,2.209-3.344,2.4-3.25,2.545-3.281,2.641-3.156,2.689-3.125,2.929-3.094L333.132,5l3.025-3,1.1-1h-1.2ZM324.619,1,322.7,2.594,319,5.906,315.4,9.25l-3.41,3.406-3.313,3.469-3.218,3.563-3.073,3.563L299.5,26.906l-2.785,3.688-2.641,3.719-2.5,3.781-2.353,3.875-2.161,3.875-2.113,3.906-1.873,4.031-1.777,4-1.537,4.063-1.489,4.063-1.249,4.156-1.153,4.188-.912,4.219-.768,4.219-.624,4.281-.48,4.281-.192,4.375-.144,4.344.336,8.406,1.008,8.25,1.585,8.156,2.209,8.031,2.833,7.906,3.41,7.719,3.938,7.594,4.562,7.406,5.042,7.219,5.571,7.031L309.3,184.5l6.579,6.656,7.059,6.406,7.491,6.156,7.972,5.906,8.308,5.688,8.788,5.406,9.124,5.125,9.556,4.844,9.893,4.563L394.3,239.5l10.565,3.938,10.853,3.594,11.189,3.281,11.477,2.906,11.669,2.594L462.059,258l12.2,1.813L486.6,261.25l12.63,1.031,12.822.656,12.918.219,12.966-.219,12.822-.656,12.63-1.031,12.342-1.437,12.2-1.812,12.006-2.187,11.669-2.594,11.477-2.906,11.189-3.281,10.853-3.594,10.565-3.937,10.229-4.25,9.893-4.562,9.557-4.844,9.124-5.125,8.788-5.406,8.308-5.687,7.972-5.906,7.491-6.156,7.011-6.406,6.627-6.656,6.051-6.812,5.571-7.031,5.042-7.219,4.562-7.406,3.938-7.594,3.41-7.719,2.833-7.906,2.209-8.031,1.585-8.156,1.008-8.25.336-8.406-.144-4.312-.192-4.281-.432-4.312-.624-4.219-.768-4.187-.912-4.187L773,70.313l-1.249-4.062-1.345-4.094-1.585-4.031-1.729-3.969-1.873-3.969L763.2,46.281l-2.161-3.844-2.353-3.812-2.449-3.781L753.7,31.125l-2.737-3.656-2.881-3.594L745.1,20.281l-3.169-3.5-3.266-3.437-3.41-3.406L731.75,6.594,728.1,3.312,725.412,1h-1.249l3.169,2.688,3.6,3.281,3.505,3.313,3.41,3.406,3.266,3.437,3.073,3.469,3.025,3.563,2.833,3.594,2.689,3.656,2.641,3.719,2.449,3.719,2.257,3.844,2.209,3.813,2.017,3.906,1.825,3.938,1.681,3.969,1.585,4,1.441,4.031,1.249,4.125,1.1,4.094.912,4.156.768,4.188.576,4.25.432,4.25.24,4.25.1,4.313-.336,8.375-.96,8.219-1.585,8.156-2.209,7.969-2.785,7.844-3.458,7.75L761,155.813l-4.514,7.375-5.09,7.188-5.571,7.031-6,6.781-6.579,6.594-7.011,6.375-7.443,6.125-7.924,5.938-8.308,5.625-8.692,5.375-9.172,5.125-9.46,4.844-9.844,4.531L655.2,238.938l-10.517,3.938-10.853,3.563-11.141,3.281-11.381,2.906-11.669,2.594-11.909,2.156-12.15,1.844-12.39,1.406-12.534,1.031-12.774.625-12.918.219-12.87-.219-12.774-.625-12.534-1.031-12.39-1.406-12.149-1.844-11.909-2.156-11.669-2.594-11.381-2.906-11.141-3.281L405.3,242.875l-10.517-3.937L384.6,234.719l-9.844-4.531-9.46-4.844-9.172-5.125-8.692-5.375-8.356-5.625-7.876-5.937-7.443-6.125-7.059-6.375-6.531-6.594-6-6.781-5.571-7.031-5.09-7.187-4.514-7.375-3.89-7.531-3.458-7.75-2.785-7.844-2.209-7.969-1.585-8.156-.96-8.219-.336-8.375.1-4.344.24-4.344L274.535,87l.624-4.25.768-4.219.912-4.187,1.153-4.156,1.249-4.125L280.681,62l1.585-4.062,1.729-4,1.921-3.969,2.065-3.937,2.161-3.844,2.353-3.844,2.5-3.75,2.593-3.75,2.785-3.656,2.881-3.656L306.325,20l3.169-3.531,3.313-3.437,3.41-3.406,3.6-3.375L323.469,3l2.353-2h-1.2Zm-10.9,0-3.362,2.625-4.418,3.688-4.322,3.75-4.178,3.875-3.986,3.906-3.794,4-3.7,4.031-3.554,4.094-3.313,4.219-3.218,4.25L272.9,43.75l-2.833,4.375-2.689,4.438-2.5,4.469-2.305,4.531-2.113,4.594-1.873,4.656-1.777,4.719-1.537,4.719-1.345,4.781-1.153,4.844-.96,4.844-.72,4.938-.528,4.906-.336,5-.1,5v.031l.384,9.125,1.008,9.031,1.777,8.906,2.449,8.688,3.025,8.625,3.7,8.438,4.37,8.25,4.9,8.094,5.571,7.844,6,7.656L290,206.719l7.107,7.219,7.684,6.969,8.164,6.688,8.692,6.5,9.076,6.156,9.556,5.875,9.989,5.594L360.588,257l10.8,4.969,11.141,4.656,11.573,4.281,11.813,3.938,12.2,3.531,12.438,3.188,12.774,2.813,13.062,2.406,13.254,1.969,13.542,1.563,13.782,1.125,13.926.719,14.07.219,14.118-.219,13.926-.719,13.782-1.125,13.494-1.562,13.3-1.969,13.062-2.406,12.774-2.812,12.438-3.187,12.2-3.531,11.813-3.937,11.573-4.281,11.141-4.656L689.3,257l10.421-5.281,9.989-5.594,9.556-5.875,9.076-6.156,8.692-6.5,8.164-6.687,7.684-6.969,7.107-7.219,6.675-7.469,6-7.656,5.571-7.844,4.9-8.094,4.37-8.25,3.7-8.437,3.025-8.625,2.449-8.687,1.777-8.906,1.008-9.031.384-9.125v-.031l-.1-5.062-.336-5.062-.528-5.031-.768-5-1.008-4.937-1.153-4.906-1.441-4.844-1.585-4.812-1.777-4.781-1.969-4.687-2.161-4.656-2.4-4.594-2.593-4.531-2.689-4.5-2.977-4.437-3.073-4.375-3.266-4.312-3.505-4.219-3.6-4.187-3.794-4.062-3.938-4.031-4.13-3.969-4.226-3.875-4.418-3.781-4.562-3.719L736.312,1h-1.3l2.065,1.563,4.514,3.719,4.418,3.781,4.226,3.875,4.13,3.938,3.938,4,3.746,4.063,3.65,4.188,3.458,4.219,3.266,4.281,3.073,4.344,2.881,4.406,2.737,4.469,2.545,4.531,2.4,4.594,2.209,4.625,1.921,4.719,1.825,4.75,1.585,4.781,1.345,4.813,1.2,4.906.96,4.906.768,4.969.576,5.031.336,5.031.1,5.063-.384,9.125-1.056,9-1.729,8.844-2.4,8.719-3.121,8.563-3.7,8.406-4.274,8.219-4.9,8.063-5.523,7.813-6.051,7.656-6.579,7.406-7.107,7.188L744.38,220.5l-8.116,6.719-8.6,6.406-9.124,6.156-9.508,5.906-9.893,5.563L688.77,256.5l-10.709,4.938-11.189,4.594-11.429,4.313-11.813,3.875-12.149,3.594-12.39,3.156-12.774,2.781L593.4,286.125l-13.254,2-13.494,1.563-13.686,1.125-13.926.719-14.07.219-14.022-.219-13.926-.719-13.686-1.125-13.494-1.562-13.254-2-12.966-2.375-12.726-2.781-12.39-3.156-12.149-3.594-11.813-3.875-11.429-4.312-11.189-4.594L361.213,256.5l-10.373-5.25-9.893-5.562-9.508-5.906-9.124-6.156-8.6-6.406L305.6,220.5l-7.684-6.937-7.107-7.187-6.579-7.406-6.051-7.656L272.66,183.5l-4.9-8.062-4.274-8.219-3.746-8.406-3.073-8.562-2.4-8.719-1.729-8.844-1.056-9-.384-9.094v-.031l.1-5,.336-4.937.576-4.937.672-4.875,1.008-4.875,1.153-4.812,1.3-4.75,1.489-4.719L259.5,71l1.969-4.656,2.065-4.563,2.257-4.531,2.5-4.469,2.689-4.437L273.765,44l3.025-4.312,3.169-4.219,3.313-4.156,3.554-4.125,3.65-4.031,3.794-3.969,3.986-3.906,4.13-3.812,4.322-3.75,4.418-3.687L314.92,1h-1.2ZM303.346,1l-3.073,2.219L295.309,7l-4.8,3.906-4.658,3.969-4.562,4L277.012,23l-4.178,4.188-4.034,4.25-3.89,4.375-3.65,4.375-3.554,4.469-3.313,4.531-3.121,4.625-3.025,4.656-2.785,4.719-2.545,4.781-2.449,4.813-2.161,4.938-2.017,4.938-1.873,5-1.585,5.031-1.393,5.094-1.2,5.125-1.008,5.188-.72,5.25-.624,5.219-.336,5.313-.1,5.344.384,9.875,1.153,9.781,1.921,9.594,2.593,9.469,3.313,9.313,4.034,9.094,4.706,8.938,5.331,8.75,5.955,8.5,6.531,8.344,7.2,8.031,7.731,7.813,8.356,7.531,8.788,7.281,9.364,7,9.893,6.656,10.325,6.375,10.757,6.063,11.285,5.719,11.669,5.375,12.1,5,12.438,4.656,12.822,4.25,13.158,3.844,13.494,3.438,13.83,3.063,14.118,2.563,14.359,2.188,14.647,1.688,14.887,1.219,15.079.719,15.271.25,15.319-.25,15.079-.719,14.887-1.219,14.647-1.687,14.359-2.187,14.118-2.562,13.83-3.062,13.494-3.437,13.158-3.844,12.822-4.25,12.438-4.656,12.1-5,11.669-5.375,11.237-5.719,10.8-6.062,10.325-6.375,9.893-6.656,9.364-7,8.788-7.281,8.356-7.531,7.732-7.812,7.2-8.031,6.531-8.344,5.955-8.5,5.331-8.75,4.706-8.937,4.034-9.094,3.313-9.312,2.593-9.469,1.921-9.594,1.153-9.781.384-9.875-.1-5.469-.384-5.469-.624-5.375-.768-5.344-1.057-5.312L818.317,97l-1.489-5.219-1.681-5.156L813.227,81.5l-2.113-5.062-2.353-5-2.5-4.937-2.737-4.906L800.6,56.781l-3.121-4.75-3.313-4.719-3.458-4.594-3.65-4.562-3.89-4.5-4.034-4.406-4.226-4.312-4.37-4.25L765.974,16.5l-4.754-4.125-4.85-4-5.04-3.936L746.673,1h-1.3l.048.031,5.186,3.844L755.6,8.814l4.85,3.969,4.754,4.063,4.514,4.188,4.37,4.25,4.178,4.281L782.3,34l3.89,4.469L789.844,43,793.3,47.6l3.313,4.688,3.121,4.75,2.881,4.813,2.737,4.844,2.5,4.938,2.353,5,2.113,5.031,1.825,5.094,1.729,5.156,1.489,5.188,1.249,5.25,1.056,5.281.816,5.344.528,5.344.384,5.438.1,5.469-.336,9.844L820,148.814l-1.921,9.563-2.593,9.438-3.362,9.25-3.938,9.125-4.706,8.875-5.331,8.719-5.955,8.5-6.531,8.281-7.155,8.031-7.684,7.75-8.308,7.531-8.788,7.25-9.316,6.937-9.844,6.688-10.325,6.375-10.757,6L702.3,282.845l-11.621,5.344-12.054,5-12.39,4.594-12.822,4.25-13.11,3.844-13.446,3.438-13.782,3.031-14.022,2.594-14.407,2.125-14.6,1.719-14.791,1.188-15.031.75-15.271.25-15.223-.25-15.031-.75-14.791-1.187-14.6-1.719L450.9,314.939l-14.022-2.594L423.1,309.314l-13.446-3.437-13.11-3.844-12.822-4.25-12.39-4.594-12.054-5-11.669-5.344-11.141-5.719-10.757-6-10.325-6.375-9.844-6.687-9.316-6.937-8.836-7.25-8.26-7.531-7.684-7.75-7.155-8.031-6.579-8.281-5.907-8.5-5.331-8.719-4.706-8.875-3.938-9.125-3.362-9.25-2.593-9.437-1.921-9.562-1.153-9.75-.384-9.844.144-5.344.336-5.281.576-5.219.768-5.219.96-5.125,1.2-5.156,1.393-5.062,1.633-5.031,1.777-5,2.017-4.906L241.432,73l2.4-4.812,2.593-4.781,2.737-4.719,3.025-4.625,3.073-4.594,3.362-4.531,3.458-4.469,3.7-4.375,3.842-4.344,4.034-4.25,4.13-4.125,4.322-4.125,4.466-4.031,4.706-3.937,4.8-3.875L301,3.616l3.6-2.625H303.3Zm-9.893,0-3.746,2.563-6,4.281-5.811,4.438-5.618,4.531L266.9,21.437l-5.234,4.719-4.994,4.813-4.8,4.937-4.61,5L242.838,46l-4.13,5.219-3.986,5.25-3.7,5.344-3.506,5.469-3.266,5.469-3.025,5.563L218.443,84l-2.5,5.688-2.305,5.781-2.017,5.875-1.777,5.906-1.537,5.969-1.249,6.031-1.008,6.063-.624,6.125L205,137.594l-.192,6.219v.031l.432,10.625,1.3,10.5,1.969,10.344,2.833,10.188,3.6,10,4.322,9.813,4.994,9.625,5.763,9.406,6.435,9.188,7.107,8.906,7.731,8.656L259.6,259.5l8.932,8.156,9.46,7.781,10.085,7.5,10.613,7.25L309.781,297l11.669,6.531,12.1,6.125,12.582,5.781,12.966,5.438,13.4,4.938,13.83,4.625,14.118,4.125L415,338.282l14.887,3.25,15.175,2.781,15.462,2.344,15.8,1.813,15.991,1.313,16.231.813,16.424.281,16.472-.281,16.231-.812,15.991-1.312,15.8-1.812,15.462-2.344,15.175-2.781,14.887-3.25,14.551-3.719,14.118-4.125,13.83-4.625,13.4-4.937,12.966-5.437,12.582-5.781,12.1-6.125L740.151,297l11.141-6.812,10.613-7.25,10.085-7.5,9.46-7.781,8.932-8.156,8.308-8.406,7.731-8.656,7.107-8.906,6.435-9.187,5.763-9.406,4.994-9.625,4.322-9.812,3.554-10,2.833-10.188,2.017-10.344,1.249-10.5.48-10.625v-.031l-.192-6-.384-6-.624-5.906-.96-5.875-1.1-5.844-1.441-5.781-1.681-5.75L836.867,97l-2.113-5.625-2.4-5.531-2.593-5.5-2.833-5.469-3.073-5.344L820.54,64.25l-3.505-5.219-3.7-5.125-3.89-5.062-4.13-5-4.322-4.875-4.562-4.844-4.706-4.688-4.946-4.656-5.042-4.562-5.282-4.437-5.523-4.344-5.667-4.313L759.5,3l-2.977-2h-1.3l3.505,2.406,5.811,4.156,5.619,4.25,5.474,4.375,5.282,4.406,5.09,4.531,4.9,4.656,4.706,4.719,4.514,4.781,4.274,4.875,4.178,4.969,3.89,5.063,3.7,5.094,3.505,5.219,3.266,5.281,3.026,5.344,2.833,5.406L831.44,86l2.353,5.531,2.161,5.594,1.921,5.688,1.633,5.688,1.393,5.781,1.153,5.813.912,5.844.672,5.938.384,5.938.144,6-.432,10.625-1.2,10.438-2.065,10.344-2.785,10.156-3.6,9.969-4.274,9.781-5.042,9.625-5.715,9.344-6.387,9.156-7.107,8.875-7.683,8.656-8.26,8.344-8.932,8.125-9.46,7.781-10.085,7.5-10.565,7.188-11.045,6.844L727.9,303.032l-12.054,6.125-12.534,5.781L690.4,320.282l-13.4,5-13.782,4.531-14.07,4.156-14.5,3.719-14.839,3.219-15.175,2.813-15.415,2.313-15.656,1.781-15.943,1.313-16.231.813-16.424.313-16.375-.312-16.231-.812-15.943-1.312-15.656-1.781-15.415-2.312-15.175-2.812-14.839-3.219-14.5-3.719-14.07-4.156-13.782-4.531-13.4-5-12.918-5.344-12.534-5.781-12.054-6.125-11.621-6.469L299.4,289.719l-10.565-7.187-10.085-7.5-9.46-7.781-8.932-8.125-8.26-8.344-7.684-8.656-7.107-8.875-6.387-9.156-5.763-9.344-4.994-9.625-4.274-9.781-3.6-9.969-2.785-10.156-2.065-10.344-1.2-10.438-.432-10.594v-.031l.144-6.187.432-6.156.672-6.094.96-6.062,1.249-6.031,1.537-5.937,1.729-5.875,2.017-5.812,2.305-5.781,2.545-5.719,2.785-5.625,2.977-5.562,3.266-5.5,3.458-5.406,3.746-5.312,3.938-5.25,4.13-5.187,4.418-5.094,4.562-5,4.8-4.875,4.994-4.812,5.186-4.719,5.378-4.625,5.619-4.5,5.763-4.406,6-4.312L294.795,1H293.45Zm-9.509,0-6.339,4.125-6.483,4.469-6.243,4.594-6.1,4.719-5.859,4.813-5.667,4.938-5.523,5.031L236.5,38.813l-5.042,5.219-4.85,5.344-4.562,5.375-4.37,5.531-4.13,5.594-3.938,5.688-3.65,5.781-3.41,5.813-3.169,5.906-2.929,5.969-2.641,6.125-2.4,6.125-2.161,6.156-1.825,6.281L185.835,126l-1.345,6.406-.96,6.438-.768,6.469-.432,6.531-.144,6.594.432,11.406,1.345,11.219,2.161,11.094,3.025,10.938,3.842,10.688,4.658,10.531,5.378,10.281,6.147,10.062,6.867,9.813,7.587,9.563,8.26,9.281,8.932,9L250.329,291l10.181,8.344,10.8,8.063,11.381,7.719,11.909,7.344,12.438,6.969,12.918,6.594,13.494,6.156,13.926,5.781,14.311,5.344,14.791,4.906,15.175,4.469,15.559,3.969,15.943,3.469,16.231,3,16.615,2.469,16.808,1.969,17.143,1.375,17.383.875,17.624.281,17.672-.281,17.383-.875,17.143-1.375,16.808-1.969,16.615-2.469,16.231-3,15.943-3.469,15.559-3.969,15.175-4.469,14.791-4.906,14.311-5.344,13.926-5.781,13.446-6.156,12.966-6.594,12.438-6.969,11.909-7.344,11.381-7.719,10.8-8.062L799.649,291l9.508-8.687,8.932-9,8.26-9.281,7.587-9.562,6.867-9.812,6.147-10.062,5.378-10.281,4.658-10.531,3.842-10.688,2.977-10.938,2.209-11.094,1.345-11.219.432-11.406-.144-6.625-.432-6.562-.768-6.5-1.057-6.469-1.3-6.406-1.585-6.344-1.873-6.312L858.477,107l-2.449-6.156-2.641-6.094-2.929-6-3.218-5.969-3.458-5.844-3.7-5.812-3.938-5.687-4.178-5.625-4.418-5.5-4.61-5.437-4.9-5.344-5.138-5.25-5.282-5.187L802.1,28.062l-5.715-4.906-5.955-4.844-6.147-4.719-6.339-4.625-6.531-4.5L766.033,1h-1.393l6.1,3.938,6.531,4.469L783.562,14l6.1,4.719,5.955,4.813,5.715,4.938L806.8,33.5l5.282,5.125,5.138,5.219,4.85,5.313,4.61,5.438,4.418,5.5,4.13,5.625,3.986,5.656,3.65,5.781L846.279,83l3.218,5.938,2.929,6L855.115,101l2.4,6.156,2.161,6.219,1.873,6.25,1.585,6.313,1.3,6.406,1.008,6.469.768,6.469.432,6.563.192,6.594-.432,11.375L865.007,181l-2.161,11.062-2.977,10.875-3.842,10.656-4.61,10.5-5.378,10.281-6.1,10.031-6.867,9.781-7.587,9.531-8.212,9.25-8.932,9-9.508,8.625L788.7,298.968l-10.8,8-11.333,7.688L754.7,322l-12.39,6.938L729.393,335.5l-13.4,6.156-13.878,5.781-14.311,5.313-14.695,4.906-15.175,4.406-15.511,3.969-15.9,3.469-16.231,3-16.472,2.469-16.856,1.938-17.1,1.438-17.288.844-17.624.281-17.577-.281-17.288-.844L473,376.905l-16.856-1.937L439.673,372.5l-16.231-3-15.9-3.469-15.511-3.969-15.175-4.406-14.695-4.906-14.311-5.312-13.878-5.781-13.4-6.156-12.918-6.562L295.271,322l-11.862-7.344-11.333-7.687-10.8-8-10.133-8.375-9.508-8.625-8.932-9-8.212-9.25-7.587-9.531-6.867-9.781-6.1-10.031-5.378-10.281-4.61-10.5L190.1,202.937l-2.977-10.875L184.964,181l-1.393-11.188-.432-11.375.192-6.562.432-6.5.72-6.469,1.008-6.406,1.3-6.375,1.585-6.312,1.873-6.25,2.113-6.156,2.4-6.125L197.4,95.25l2.881-5.969,3.169-5.906,3.362-5.844,3.65-5.719,3.938-5.687,4.13-5.562,4.37-5.5,4.562-5.375,4.8-5.312,5.042-5.219,5.234-5.125,5.475-5,5.618-4.937,5.907-4.812,6.1-4.656,6.243-4.594,6.435-4.5,6.627-4.344L285.235,1h-1.3Zm-9.172,0-1.008.594-7.731,4.875L258.589,11.5l-7.251,5.125-7.059,5.281-6.771,5.406-6.531,5.563-6.291,5.656-6.051,5.781-5.763,5.906L207.4,56.25l-5.234,6.125-4.946,6.281L192.51,75l-4.418,6.438L184.011,88l-3.794,6.656-3.506,6.719-3.218,6.844-2.881,6.906-2.545,7-2.209,7.094-1.921,7.094-1.585,7.25-1.2,7.281-.912,7.344-.48,7.406-.24,7.469.48,12.125,1.441,12L163.745,209l3.218,11.625,4.082,11.406,4.994,11.219,5.715,10.969,6.579,10.719,7.3,10.469,8.068,10.188,8.788,9.906,9.556,9.594,10.181,9.25,10.853,8.938,11.525,8.563,12.054,8.219,12.726,7.844,13.254,7.406,13.83,7.031,14.359,6.594,14.791,6.125,15.319,5.719L366.687,386l16.183,4.75L399.437,395l17,3.719,17.288,3.188,17.72,2.625,17.961,2.063,18.3,1.5,18.488.938,18.777.313,18.825-.312,18.488-.937,18.3-1.5,17.961-2.062,17.72-2.625,17.288-3.187,17-3.719,16.567-4.25L683.293,386l15.751-5.219,15.319-5.719,14.791-6.125,14.359-6.594,13.83-7.031,13.254-7.406,12.678-7.844,12.1-8.219,11.477-8.562,10.9-8.937,10.181-9.25,9.556-9.594,8.788-9.906,8.068-10.188,7.3-10.469,6.579-10.719,5.715-10.969,4.994-11.219,4.082-11.406L886.186,209l2.353-11.812,1.441-12,.48-12.125-.144-7.187-.576-7.156-.816-7.094-1.153-7.031-1.441-6.969-1.777-6.906-2.065-6.844-2.4-6.75-2.689-6.687-2.929-6.594L871.2,97.281l-3.554-6.437L863.76,84.5l-4.082-6.281-4.322-6.156L850.7,65.968l-4.9-6-5.09-5.875-5.475-5.781-5.619-5.656-5.859-5.531-6.147-5.469-6.339-5.312-6.579-5.219-6.819-5.062-6.963-4.906-7.223-4.839L776.3,1.6,775.283,1h-1.537L775.571,2.1l7.443,4.656,7.2,4.812,7.011,4.938,6.723,5.063,6.579,5.156,6.339,5.313,6.1,5.438L828.827,43l5.618,5.656,5.378,5.75,5.138,5.875,4.9,5.969,4.61,6.063,4.37,6.156,4.082,6.281,3.842,6.313L870.27,97.5l3.266,6.5,2.977,6.594,2.641,6.656,2.4,6.781,2.065,6.812,1.777,6.875,1.441,6.938,1.153,7,.816,7.094.528,7.125.192,7.156L889,185.16l-1.393,11.969-2.353,11.781-3.218,11.562L878,231.878l-4.946,11.188L867.341,254l-6.531,10.688-7.3,10.438-8.068,10.156-8.788,9.906-9.508,9.563-10.181,9.188-10.8,8.938-11.477,8.531L782.63,339.6,770,347.411l-13.254,7.438-13.782,6.969-14.311,6.594-14.743,6.125-15.319,5.688-15.656,5.188-16.183,4.719-16.567,4.25-16.856,3.688-17.336,3.188-17.577,2.625-17.961,2.094-18.2,1.5-18.488.906-18.777.313-18.729-.312-18.488-.906-18.2-1.5L451.61,403.88l-17.577-2.625L416.7,398.067l-16.856-3.687-16.567-4.25-16.183-4.719-15.656-5.187-15.319-5.687-14.743-6.125-14.311-6.594-13.782-6.969-13.254-7.437L267.4,339.6l-12.1-8.187-11.429-8.531-10.8-8.937-10.181-9.187-9.508-9.562-8.788-9.906-8.068-10.156-7.3-10.438L182.686,254l-5.715-10.938-4.946-11.188-4.034-11.406-3.218-11.562-2.353-11.781-1.393-11.969-.528-12.094v-.031l.24-7.406.48-7.406.912-7.344,1.2-7.25,1.585-7.187,1.921-7.125,2.209-7.062,2.593-6.969,2.881-6.875,3.169-6.844,3.458-6.687,3.842-6.625,4.082-6.562,4.322-6.437,4.706-6.312,4.946-6.25,5.234-6.125,5.475-6.031,5.715-5.875,6.051-5.781,6.291-5.625,6.531-5.531,6.723-5.406,6.963-5.25,7.251-5.156,7.491-4.969,7.636-4.875L276.232,1h-1.441Zm-8.788,0-2.5,1.438-8.26,4.969L247.3,12.563l-7.78,5.313-7.539,5.406-7.3,5.625-7.011,5.687L210.9,40.438l-6.531,5.969-6.243,6.125-6,6.188-5.715,6.344-5.378,6.469-5.186,6.563L171,84.781l-4.514,6.781-4.226,6.875-3.938,7-3.65,7.063-3.313,7.188-2.929,7.25-2.689,7.344-2.353,7.406-1.921,7.5-1.633,7.563-1.3,7.625-.912,7.688-.528,7.781-.24,7.813v.063l.576,12.844,1.441,12.719,2.5,12.562,3.41,12.344,4.322,12.125,5.234,11.906,6.147,11.656L167.4,285.25l7.828,11.125,8.6,10.812,9.364,10.5,10.085,10.188,10.8,9.813,11.573,9.5,12.2,9.094L250.666,365l13.494,8.344,14.118,7.875,14.647,7.469,15.175,6.969,15.8,6.563,16.231,6.031,16.712,5.563,17.193,5.031,17.672,4.5,18.009,3.938,18.393,3.375,18.729,2.813,19.114,2.188,19.4,1.594,19.688,1,19.93.313,19.93-.312,19.737-1,19.4-1.594,19.114-2.187,18.729-2.812,18.393-3.375,18.009-3.937,17.672-4.5,17.193-5.031,16.712-5.562,16.231-6.031,15.8-6.562,15.175-6.969,14.647-7.469,14.118-7.875L799.321,365l12.822-8.719,12.2-9.094,11.573-9.5,10.8-9.812L856.8,317.687l9.364-10.5,8.6-10.812,7.828-11.125,6.915-11.375,6.147-11.656,5.186-11.906,4.37-12.125,3.41-12.344,2.5-12.562,1.441-12.719.576-12.844v-.062l-.24-7.75-.528-7.719-.864-7.656-1.345-7.594-1.537-7.531-1.969-7.437-2.305-7.375-2.593-7.312-2.977-7.219-3.266-7.125-3.554-7-3.89-6.969-4.178-6.875-4.514-6.719-4.8-6.656-5.09-6.531L864.1,65.75l-5.618-6.312-5.907-6.187-6.195-6.094-6.435-5.969-6.723-5.812-6.963-5.688-7.2-5.594-7.444-5.406-7.684-5.281-7.876-5.125-8.116-5-3.919-2.262h-1.441l4.706,2.75L795.4,8.738l7.924,5.156,7.588,5.25,7.443,5.406,7.155,5.563,6.963,5.687,6.675,5.781,6.483,5.969,6.147,6.063,5.859,6.156,5.667,6.312,5.331,6.406,5.09,6.531,4.754,6.625,4.466,6.719,4.226,6.844,3.842,6.906,3.6,7.063,3.266,7.094,2.929,7.188,2.641,7.281,2.209,7.344,1.969,7.438,1.633,7.531,1.249,7.563.864,7.625.576,7.688.192,7.75-.528,12.875-1.489,12.719-2.449,12.5-3.41,12.312-4.37,12.125-5.186,11.812-6.1,11.625-6.963,11.375-7.731,11.094-8.6,10.781-9.316,10.469L845.922,327.55l-10.757,9.813-11.525,9.469-12.149,9.063-12.87,8.688-13.446,8.281-14.022,7.875-14.647,7.438-15.175,6.969-15.7,6.531L709.4,407.706l-16.664,5.563-17.143,4.969-17.624,4.5L640,426.675l-18.345,3.375-18.729,2.813-19.064,2.219-19.3,1.594-19.688.969-19.882.313-19.833-.312-19.688-.969-19.3-1.594L447.1,432.863l-18.729-2.812-18.345-3.375-17.961-3.937-17.624-4.5L357.3,413.269l-16.664-5.562L324.4,401.675l-15.7-6.531-15.175-6.969-14.647-7.437-14.022-7.875-13.446-8.281-12.87-8.687-12.15-9.062-11.525-9.469-10.757-9.812-10.085-10.188-9.316-10.469-8.6-10.781-7.714-11.09-6.977-11.38-6.085-11.62-5.186-11.812-4.37-12.125-3.41-12.312-2.449-12.5-1.489-12.719-.528-12.875.192-7.781.576-7.75.912-7.656,1.249-7.625,1.633-7.562,1.969-7.469,2.257-7.406,2.689-7.344,2.977-7.219,3.265-7.156,3.6-7.031,3.986-6.969,4.178-6.875,4.61-6.75,4.8-6.656,5.138-6.562,5.378-6.469,5.715-6.281,5.955-6.25,6.243-6.062,6.483-5.969,6.771-5.812,7.011-5.719,7.3-5.562,7.443-5.406,7.731-5.281,8.02-5.156,8.164-4.969,3.3-1.89h-1.441Zm-8.5,0-3.313,1.813-9.124,5.312-8.74,5.469-8.6,5.656L219.4,25.031l-8.068,5.938L203.6,37.125l-7.491,6.25-7.2,6.375-6.915,6.563L175.415,63l-6.291,6.813-6,6.938-5.715,7.094-5.33,7.188-5.09,7.313-4.658,7.437-4.37,7.563-4.034,7.594-3.65,7.781-3.313,7.813-2.929,7.938-2.593,8-2.161,8.125-1.777,8.219-1.441,8.25-1.008,8.344-.624,8.438-.192,8.469.528,13.625,1.585,13.469,2.593,13.281,3.65,13.062,4.61,12.844,5.523,12.594,6.483,12.312,7.347,12.062,8.212,11.75,9.124,11.438,9.893,11.125,10.661,10.781,11.525,10.406,12.2,10.031,12.87,9.656,13.638,9.219,14.262,8.813,14.887,8.313L279.383,415l16.088,7.406,16.664,6.906,17.24,6.438,17.672,5.844,18.2,5.344,18.68,4.75,19.017,4.188,19.5,3.563,19.833,2.969,20.266,2.344,20.506,1.719,20.841,1,21.082.344,21.13-.344,20.841-1,20.506-1.719,20.266-2.344,19.833-2.969,19.449-3.562,19.064-4.187,18.68-4.75,18.2-5.344,17.672-5.844,17.24-6.437,16.664-6.906L770.6,415l15.511-7.906,14.935-8.312,14.262-8.812,13.638-9.219,12.87-9.656,12.2-10.031,11.525-10.406L876.2,339.875,886.1,328.75l9.124-11.438,8.212-11.75,7.347-12.062,6.483-12.312,5.523-12.594,4.61-12.844,3.65-13.062,2.593-13.281,1.585-13.469.528-13.625-.192-8.469-.624-8.375-1.008-8.312-1.441-8.219-1.777-8.187-2.113-8.094-2.593-8-2.929-7.906-3.266-7.844-3.65-7.687-3.986-7.594-4.322-7.562-4.658-7.406-4.994-7.25-5.331-7.187L887.2,77.156l-5.955-6.937L875,63.406l-6.579-6.656-6.867-6.531-7.2-6.406-7.4-6.25-7.731-6.094-8.02-5.937L823,19.719l-8.548-5.625-8.74-5.469-9.028-5.312L792.5,1h-1.489l5.042,2.813,8.98,5.281,8.74,5.437,8.5,5.656,8.26,5.75,7.924,5.938,7.731,6.094,7.4,6.219,7.155,6.375,6.867,6.531,6.531,6.656,6.243,6.781,5.955,6.906L892,84.5l5.282,7.156,4.994,7.281,4.658,7.375,4.322,7.5,3.986,7.594,3.65,7.688,3.266,7.844,2.881,7.844,2.545,8,2.209,8.063L931.523,169l1.393,8.219,1.056,8.281.576,8.375.24,8.438-.528,13.594-1.585,13.438-2.641,13.25-3.65,13.031-4.562,12.781L916.348,281l-6.483,12.281-7.347,12.031-8.212,11.719-9.076,11.406-9.844,11.125-10.661,10.75-11.429,10.375-12.2,10-12.87,9.625-13.638,9.219-14.167,8.75-14.887,8.313-15.511,7.875-16.088,7.406-16.567,6.906-17.193,6.375L702.5,441l-18.152,5.344-18.633,4.719-18.969,4.188L627.3,458.845l-19.833,2.938-20.122,2.344-20.553,1.688-20.745,1.031-21.082.313-21.034-.312-20.746-1.031-20.553-1.687-20.122-2.344-19.833-2.937-19.449-3.594-19.017-4.187-18.585-4.719L347.478,441l-17.672-5.844-17.193-6.375-16.567-6.906-16.088-7.406-15.512-7.875-14.887-8.312-14.215-8.75-13.59-9.219-12.87-9.625-12.2-10-11.429-10.375L174.6,339.563l-9.844-11.125-9.076-11.406-8.188-11.68-7.347-12.03-6.483-12.28-5.475-12.594-4.562-12.781-3.65-13.031-2.641-13.25-1.585-13.438-.528-13.594.24-8.469.576-8.406,1.056-8.281,1.393-8.281,1.825-8.156,2.161-8.094,2.545-8,2.929-7.906,3.265-7.844,3.65-7.719,4.034-7.625,4.37-7.5,4.706-7.437,4.994-7.281,5.331-7.187,5.667-7.031,6-6.969,6.291-6.781,6.579-6.656,6.915-6.531,7.2-6.406,7.443-6.25,7.731-6.094,8.02-5.937,8.26-5.781,8.548-5.656,8.836-5.438,9.028-5.281,4.165-2.31h-1.475Zm-8.356,0-8.308,4.531-10.037,5.813-9.749,6.031-9.412,6.188L202.5,29.969,193.663,36.5l-8.548,6.75-8.164,6.906-7.924,7.094-7.491,7.219-7.251,7.406-6.819,7.531-6.435,7.688-6.195,7.844-5.763,7.969-5.331,8.125-4.994,8.219-4.562,8.344-4.226,8.469-3.746,8.625-3.362,8.688-2.977,8.813-2.5,8.906-2.065,9-1.633,9.063-1.153,9.188-.672,9.25-.288,9.313v.031l.576,14.375,1.729,14.219,2.689,14,3.842,13.781,4.85,13.531,5.859,13.281,6.819,13,7.78,12.719,8.644,12.406,9.6,12.094,10.421,11.719,11.285,11.375,12.149,11,12.87,10.594,13.59,10.156,14.359,9.75,15.079,9.281L249.465,433l16.328,8.344,17,7.813,17.577,7.313,18.2,6.719,18.68,6.219L356.41,475l19.737,5.031,20.072,4.438,20.553,3.75,20.985,3.156,21.274,2.438,21.706,1.813,21.993,1.063,22.235.375,22.282-.375,21.993-1.062,21.706-1.812,21.274-2.437,20.938-3.156,20.6-3.75,20.072-4.437L693.571,475l19.161-5.594,18.68-6.219,18.2-6.719,17.577-7.312,17-7.812L800.516,433l15.7-8.781,15.127-9.281,14.359-9.75,13.59-10.156,12.87-10.594,12.149-11L895.6,362.062l10.421-11.719,9.6-12.094,8.644-12.406,7.78-12.719,6.819-13,5.859-13.281,4.85-13.531,3.842-13.781,2.689-14,1.729-14.219.576-14.375v-.031l-.288-9.031-.624-9-1.1-8.937-1.537-8.812-1.969-8.75-2.305-8.656-2.785-8.562-3.218-8.469-3.554-8.406-3.938-8.25-4.37-8.156-4.706-8.062-5.09-7.875-5.475-7.813-5.763-7.687-6.147-7.5-6.483-7.406L892.19,68.25l-7.107-7.125-7.491-6.937-7.78-6.812-8.068-6.656-8.356-6.469-8.74-6.313-8.98-6.125-9.172-6-9.556-5.781-9.8-5.594-6.3-3.42h-1.537l7.3,3.906,9.8,5.594,9.46,5.781,9.268,5.938,8.932,6.156,8.644,6.281,8.4,6.5,8.02,6.625,7.731,6.75,7.491,6.969,7.107,7.125,6.819,7.219,6.483,7.375,6.147,7.531,5.763,7.625,5.474,7.813,5.042,7.875,4.706,8.031,4.322,8.125,3.938,8.281,3.6,8.313,3.121,8.469,2.785,8.531,2.353,8.656,1.969,8.719,1.537,8.813,1.056,8.906.72,8.969.24,9.031-.624,14.375-1.633,14.188L952.5,259.424l-3.794,13.75-4.85,13.562-5.811,13.25-6.819,12.969-7.731,12.656-8.74,12.406-9.508,12.062-10.469,11.688-11.189,11.344-12.1,10.938-12.87,10.562L845.023,404.8l-14.311,9.688-15.031,9.25-15.7,8.781-16.327,8.344-17,7.781-17.528,7.281-18.056,6.719-18.68,6.219-19.114,5.594-19.641,5-20.122,4.375-20.457,3.781-20.89,3.125-21.322,2.469-21.609,1.781-21.946,1.063-22.235.406-22.187-.406-21.946-1.062-21.609-1.781-21.322-2.469-20.89-3.125-20.457-3.781-20.122-4.375-19.641-5-19.114-5.594-18.68-6.219-18.056-6.719L283.5,448.643l-17-7.781-16.328-8.344-15.7-8.781-15.031-9.25L205.132,404.8l-13.638-10.188-12.822-10.562-12.1-10.938-11.233-11.35-10.474-11.69-9.557-12.06-8.692-12.406-7.731-12.656-6.819-12.969-5.811-13.25-4.85-13.562-3.794-13.75L94.824,245.48l-1.633-14.188-.624-14.344v-.031l.288-9.281.72-9.25,1.153-9.156,1.633-9.062,2.065-8.969,2.5-8.875,2.881-8.812,3.362-8.656,3.746-8.594,4.226-8.437,4.562-8.344,4.946-8.219,5.378-8.094,5.763-7.937,6.1-7.812,6.435-7.687,6.867-7.531,7.2-7.375,7.491-7.219,7.876-7.062,8.164-6.906,8.548-6.719,8.836-6.531,9.076-6.375,9.412-6.156,9.7-6.031,9.989-5.781,9.22-5.031h-1.537Zm-7.924,0L235.3,4.031,224.973,9.719l-10.133,5.875-9.8,6.063-9.556,6.281-9.22,6.437L177.287,41,168.6,47.781l-8.308,6.969-8.068,7.125-7.684,7.281-7.4,7.438-7.011,7.563-6.723,7.75-6.291,7.844-6,8.031-5.618,8.094-5.234,8.25-4.9,8.406-4.466,8.5-4.082,8.625-3.65,8.719-3.313,8.813-2.833,8.938-2.449,9.031-2.017,9.094-1.585,9.219-1.1,9.281-.672,9.344-.24,9.438.576,15.156L71.3,261.625l2.881,14.719,4.034,14.531,5.138,14.25L89.5,319.094l7.2,13.719,8.164,13.344,9.124,13.094,10.085,12.656,11,12.375,11.862,11.938,12.678,11.562,13.59,11.156,14.359,10.719,15.079,10.219,15.846,9.75,16.567,9.281,17.24,8.75,17.864,8.219,18.536,7.688,19.114,7.094,19.641,6.531,20.169,5.906,20.7,5.281L389.5,513l21.658,3.969,22.042,3.313,22.427,2.594,22.811,1.875,23.146,1.156,23.387.406,23.435-.406,23.146-1.156,22.811-1.875,22.427-2.594,22.042-3.312L660.486,513l21.177-4.625,20.65-5.281,20.217-5.906,19.641-6.531,19.114-7.094,18.536-7.687,17.864-8.219,17.24-8.75,16.567-9.281,15.846-9.75,15.079-10.219,14.359-10.719,13.59-11.156,12.678-11.562,11.862-11.938,11-12.375,10.085-12.656,9.124-13.094,8.164-13.344,7.2-13.719,6.147-13.969,5.138-14.25,4.034-14.531,2.881-14.719,1.777-14.938.576-15.156-.24-9.906-.768-9.812-1.249-9.781-1.729-9.656-2.257-9.562-2.641-9.469L968.979,164l-3.65-9.25-4.034-9.094-4.514-9-4.9-8.906-5.331-8.719-5.763-8.594-6.243-8.469-6.531-8.312L921.053,85.5l-7.347-8-7.731-7.812-8.068-7.656-8.5-7.531-8.74-7.281-9.172-7.125-9.46-6.906-9.8-6.781-10.133-6.5-10.421-6.344L820.975,7.469,809.93,1.531l-.968-.5h-1.633l2.065,1.031,11.045,5.875,10.709,6.125,10.373,6.313L851.605,26.9l9.8,6.719,9.412,6.906,9.172,7.094,8.788,7.313,8.4,7.469,8.068,7.656,7.731,7.781,7.3,8.031,6.963,8.094,6.531,8.312,6.147,8.438,5.811,8.594,5.331,8.719,4.9,8.813,4.514,9,4.034,9.125,3.6,9.219,3.121,9.313,2.689,9.438,2.209,9.531,1.777,9.656,1.249,9.75.768,9.813.192,9.875-.528,15.125-1.825,14.938-2.881,14.688-4.034,14.469L965.8,304.966l-6.147,13.969L952.5,332.591l-8.164,13.344-9.124,13.031-10.085,12.688-10.949,12.312L902.317,395.9l-12.678,11.562L876.1,418.528l-14.311,10.688-15.079,10.219-15.8,9.75-16.52,9.25-17.193,8.75-17.817,8.188-18.488,7.656-19.064,7.094-19.641,6.5-20.122,5.906-20.65,5.281-21.13,4.625L638.676,516.4l-21.993,3.313-22.378,2.563-22.762,1.906-23.051,1.125-23.435.375-23.387-.375-23.051-1.125-22.762-1.906-22.378-2.562L411.488,516.4l-21.609-3.969-21.13-4.625-20.65-5.281-20.122-5.906-19.641-6.5-19.132-7.11-18.488-7.656-17.864-8.187-17.143-8.75-16.52-9.25-15.8-9.75L188.311,429.2l-14.359-10.688L160.459,407.45l-12.678-11.562L135.919,383.95,124.97,371.638,114.886,358.95l-9.124-13.031L97.6,332.575l-7.155-13.656L84.3,304.95l-5.042-14.188L75.22,276.293,72.338,261.6l-1.825-14.938-.528-15.125.192-9.437.672-9.312L72,203.51l1.585-9.156L75.6,185.26l2.449-9,2.833-8.906,3.265-8.812,3.65-8.719,4.082-8.594,4.466-8.469,4.85-8.375,5.186-8.25L112,108.01l6-7.969L124.3,92.2l6.723-7.687,7.011-7.594,7.347-7.406,7.684-7.25,8.02-7.094,8.308-6.937,8.692-6.812,8.884-6.594,9.22-6.406,9.556-6.281,9.844-6.062L225.672,10.2,236,4.51l6.771-3.5h-1.537Zm-7.876,0-8.74,4.438-11.525,6.187-11.189,6.438-10.9,6.656-10.469,6.844-10.277,7.031-9.844,7.281-9.508,7.469L141.7,61l-8.788,7.813-8.452,8.063-8.02,8.188-7.684,8.344-7.251,8.562-6.819,8.656L88.255,119.5l-6,9-5.618,9.125-5.09,9.281-4.706,9.438-4.178,9.531-3.794,9.688-3.313,9.781-2.737,9.875-2.353,10-1.825,10.094L47.34,225.5l-.816,10.281-.192,10.344v.031l.576,15.875,1.873,15.719,3.025,15.469,4.226,15.219,5.378,14.938,6.435,14.656,7.539,14.406,8.548,14.031,9.652,13.719L104.15,393.5l11.525,12.969L128.161,419l13.35,12.156,14.215,11.688,15.079,11.25,15.846,10.719,16.664,10.25,17.336,9.75,18.1,9.188,18.777,8.625,19.4,8.063,20.072,7.469L317.655,525l21.177,6.188,21.706,5.531,22.235,4.875,22.714,4.156,23.146,3.469,23.579,2.75,23.867,1.969,24.3,1.156,24.587.438L549.6,555.1l24.3-1.156,23.867-1.969,23.579-2.75,23.146-3.469L667.2,541.6l22.235-4.875,21.706-5.531L732.321,525l20.65-6.844,20.073-7.469,19.4-8.062L811.222,494l18.1-9.187,17.336-9.75,16.664-10.25,15.846-10.719,15.079-11.25,14.215-11.688L921.815,419,934.3,406.47,945.826,393.5l10.565-13.312,9.652-13.719,8.548-14.031,7.539-14.406,6.435-14.656,5.378-14.938,4.226-15.219,3.026-15.469,1.873-15.719.576-15.875v-.031l-.192-10.188-.768-10.156-1.3-10-1.777-9.969-2.209-9.875-2.737-9.75-3.218-9.656L987.8,167l-4.082-9.406-4.562-9.281-4.994-9.187-5.426-9.031-5.859-8.906-6.195-8.75-6.723-8.594-7.011-8.438L935.5,87.094,927.626,79l-8.164-7.937-8.6-7.812-8.932-7.562-9.268-7.437-9.6-7.219-9.927-7.007-10.277-6.813-10.613-6.625-10.9-6.406L830.155,7.962,818.63,1.993l-1.967-.968h-1.681l3.073,1.5,11.477,5.938,11.189,6.187,10.853,6.406L862.14,27.65l10.325,6.844,9.893,6.969,9.6,7.219,9.22,7.406,8.932,7.594,8.548,7.75,8.164,7.938,7.876,8.125,7.4,8.25,7.011,8.437,6.627,8.563,6.291,8.719,5.811,8.906,5.378,9,5.042,9.125,4.514,9.281,4.13,9.406,3.65,9.531,3.169,9.625,2.689,9.719,2.257,9.844,1.729,9.938,1.3,10.031.768,10.125.24,10.156-.624,15.875-1.825,15.656-3.073,15.469L993,308.338l-5.331,14.938L981.186,337.9l-7.539,14.344-8.548,14-9.556,13.688-10.565,13.312L933.5,406.183l-12.486,12.5-13.35,12.125L893.5,442.464l-15.031,11.188-15.8,10.75-16.615,10.219-17.336,9.719-18.056,9.188-18.729,8.594-19.4,8.063-19.977,7.437-20.6,6.781-21.177,6.219-21.658,5.531L666.883,541l-22.619,4.188-23.1,3.438-23.482,2.719-23.914,2-24.2,1.156-24.587.438-24.54-.437-24.2-1.156-23.914-2-23.482-2.719-23.1-3.437L383.122,541l-22.235-4.844-21.658-5.531L318.052,524.4l-20.6-6.781-19.977-7.437-19.4-8.062-18.729-8.594-18.056-9.187-17.336-9.719L187.337,464.4l-15.846-10.75-14.983-11.188-14.166-11.656-13.35-12.125-12.486-12.5-11.477-12.938L94.463,379.933l-9.6-13.688-8.548-14L68.819,337.9l-6.483-14.625-5.331-14.938L52.828,293.15l-3.073-15.469-1.825-15.656-.624-15.844v-.031l.24-10.312.816-10.281,1.3-10.156,1.777-10.062,2.305-10,2.833-9.875,3.265-9.75,3.746-9.625,4.178-9.531,4.706-9.406,5.138-9.25,5.523-9.125,6-8.969,6.435-8.875,6.867-8.625,7.2-8.531,7.636-8.375,8.02-8.156,8.452-8,8.74-7.844,9.172-7.656,9.508-7.437,9.8-7.25,10.229-7.031,10.517-6.812,10.853-6.656L213.7,12.151l11.477-6.187,9.749-4.937h-1.585Zm-7.587,0L217.1,5.219l-12.438,6.5-12.149,6.719-11.765,6.969-11.429,7.219-11.045,7.438-10.709,7.656-10.325,7.875L127.3,63.688l-9.556,8.281-9.124,8.5-8.788,8.688-8.26,8.906-7.876,9.062-7.443,9.219-7.011,9.438-6.531,9.563-6.051,9.688-5.523,9.906L46,164.969l-4.562,10.156-4.082,10.312-3.6,10.406L30.676,206.4l-2.5,10.656L26.21,227.842l-1.393,10.875-.864,11-.288,11.062.672,16.625,1.873,16.469,3.218,16.188L33.846,326l5.618,15.656,6.723,15.375,7.924,15.031,8.98,14.719,10.085,14.344,11.045,14,12.1,13.531,13.062,13.125L123.359,454.5l14.887,12.281L154,478.5l16.615,11.281L188.044,500.5l18.2,10.219,18.92,9.594,19.688,9.031,20.361,8.469,20.938,7.813,21.658,7.156L330,559.249l22.762,5.813,23.29,5.094,23.771,4.406,24.2,3.625L448.706,581l25.116,2.094,25.4,1.25,25.74.438,25.787-.437,25.4-1.25L601.272,581l24.683-2.812,24.2-3.625,23.771-4.406,23.29-5.094,22.762-5.812,22.187-6.469,21.658-7.156,20.938-7.812,20.361-8.469,19.641-9.031,18.969-9.594,18.256-10.24,17.426-10.72,16.566-11.28,15.8-11.719,14.887-12.281,13.974-12.719L953.7,428.634l12.1-13.531,11.045-14,10.085-14.344,8.98-14.719,7.876-15.031,6.771-15.375,5.618-15.656,4.418-15.938,3.218-16.188,1.873-16.469.672-16.625-.288-10.938-.816-10.875-1.393-10.719-1.921-10.688-2.449-10.5-2.977-10.469-3.505-10.312-3.986-10.188-4.514-10.031-4.946-9.937-5.426-9.812-5.955-9.594-6.387-9.5-6.819-9.312-7.251-9.156-7.731-9-8.116-8.812-8.548-8.625L934.4,73.881,925.036,65.6l-9.7-8.031L905.2,49.725l-10.517-7.656-10.8-7.375-11.189-7.219-11.525-6.937L849.3,13.819l-12.2-6.5-12.524-6.2L824.291,1h-1.585l1.3.594,12.486,6.25,12.149,6.5L860.5,21.03l11.477,6.938,11.189,7.187,10.8,7.406,10.469,7.594,10.133,7.813,9.7,8.062,9.316,8.219,8.932,8.438,8.548,8.594,8.116,8.781,7.684,8.969,7.2,9.156,6.819,9.313,6.387,9.469,5.907,9.594,5.475,9.75,4.946,9.906,4.466,10.031,3.986,10.188,3.458,10.312,3.025,10.406,2.449,10.531,1.873,10.625,1.441,10.719.816,10.812.24,10.938-.624,16.594-1.921,16.406-3.218,16.156-4.418,15.906-5.523,15.688-6.771,15.281-7.876,15.031-8.98,14.688-10.036,14.312L964.948,414.78l-12.1,13.562-13.014,13.094-13.926,12.688-14.887,12.219-15.7,11.719L878.7,489.312l-17.383,10.719-18.2,10.188-18.872,9.594-19.593,9.031-20.314,8.406-20.985,7.781-21.561,7.188-22.138,6.469-22.714,5.781L673.7,569.562l-23.724,4.375-24.2,3.594-24.587,2.875-25.067,2.063-25.356,1.25-25.74.406-25.692-.406-25.356-1.25-25.067-2.062-24.587-2.875-24.2-3.594-23.724-4.375-23.243-5.094-22.714-5.781L308.3,552.219l-21.562-7.187L265.75,537.25l-20.314-8.406-19.593-9.031-18.92-9.594-18.152-10.188-17.383-10.719-16.615-11.25-15.7-11.719-14.887-12.219-13.926-12.688L97.243,428.342l-12.1-13.562L74.1,400.842,64.06,386.53l-8.98-14.688L47.2,356.811,40.433,341.53l-5.571-15.688-4.37-15.906L27.275,293.78l-1.921-16.406-.672-16.594.288-11.062.864-10.969L27.275,227.9l1.969-10.75,2.5-10.625L34.767,196l3.554-10.438,4.082-10.25,4.562-10.156,5.138-10,5.523-9.875,6.051-9.687L70.207,126l6.963-9.375,7.443-9.219,7.828-9.031,8.308-8.844,8.74-8.687,9.076-8.469,9.556-8.312L138.014,56l10.325-7.875,10.709-7.656,11.045-7.406,11.381-7.187L193.239,18.9l12.054-6.687,12.438-6.5L227.431,1H225.8ZM218.2,1l-1.3.594-13.35,6.531-13.062,6.781-12.678,7.031-12.294,7.281L153.517,36.75l-11.573,7.781-11.189,8.031-10.8,8.219L109.529,69.25,99.54,77.937l-9.6,8.844-9.172,9.125-8.644,9.281-8.26,9.469-7.78,9.656-7.3,9.844-6.867,10-6.339,10.156-5.811,10.375-5.331,10.469-4.85,10.625-4.226,10.781-3.779,10.89-3.218,11.06-2.593,11.16L3.7,240.952l-1.489,11.37L1.3,263.792l-.288,11.6.672,17.4L3.7,309.952l3.362,16.91,4.562,16.688,5.907,16.375,7.059,16.062,8.26,15.719,9.412,15.344,10.517,15.031,11.573,14.594,12.63,14.188,13.638,13.75,14.647,13.25,15.559,12.812,16.424,12.25,17.383,11.781,18.2,11.219L191.9,536.613l19.737,10.062,20.6,9.406,21.225,8.844,21.946,8.125,22.571,7.531,23.2,6.75L345,593.425l24.348,5.313,24.876,4.594,25.308,3.781,25.787,2.969,26.172,2.156,26.556,1.313,26.94.438,26.988-.437,26.556-1.312,26.172-2.156,25.787-2.969,25.308-3.781,24.876-4.594,24.348-5.312,23.819-6.094,23.2-6.75L774.6,573.05l21.946-8.125,21.225-8.844,20.6-9.406,19.737-10.062,19.064-10.688,18.2-11.219,17.383-11.781,16.424-12.25,15.559-12.812,14.647-13.25,13.638-13.75,12.63-14.188,11.573-14.594,10.517-15.031,9.412-15.344,8.26-15.719,7.059-16.062,5.859-16.375,4.61-16.688,3.362-16.906,2.017-17.156.672-17.406-.288-11.594-.912-11.469-1.489-11.375-2.065-11.281-2.593-11.156-3.218-11.031-3.7-10.906-4.322-10.719-4.8-10.656-5.331-10.469-5.811-10.344-6.387-10.188-6.819-9.969-7.3-9.875-7.78-9.625-8.212-9.5-8.692-9.281-9.172-9.062L950.6,77.987l-10.036-8.656-10.373-8.469-10.8-8.25-11.237-8-11.525-7.75L884.667,29.3l-12.342-7.25L859.663,15,846.647,8.25,833.294,1.719,831.711,1h-1.729l2.737,1.25,13.35,6.469L859.083,15.5l12.63,7,12.294,7.281,11.909,7.531,11.573,7.781,11.141,7.969,10.8,8.219,10.373,8.469,9.989,8.656,9.556,8.844,9.124,9.063,8.644,9.281,8.212,9.438,7.78,9.625,7.3,9.813,6.819,10,6.291,10.188,5.859,10.312,5.331,10.438,4.8,10.594,4.226,10.781,3.746,10.875,3.169,11.031,2.641,11.125,2.065,11.219,1.441,11.344.96,11.469.24,11.562-.624,17.344-2.017,17.156L1042,326.813l-4.61,16.625-5.811,16.344-7.107,16-8.212,15.688-9.364,15.344-10.517,15-11.525,14.562L972.223,450.5l-13.638,13.75L944.034,477.5l-15.559,12.781L912,502.532l-17.336,11.75L876.516,525.5l-18.969,10.625-19.785,10.031-20.506,9.406-21.225,8.844-21.9,8.094-22.571,7.469-23.1,6.813-23.771,6.063-24.251,5.313-24.876,4.531-25.26,3.813-25.74,2.969-26.124,2.156-26.508,1.313-26.94.438-26.892-.437-26.508-1.312-26.124-2.156-25.74-2.969-25.308-3.812-24.827-4.531-24.251-5.312-23.771-6.062-23.146-6.812L275.9,572.5l-21.9-8.094-21.225-8.844-20.506-9.406L192.49,536.126,173.521,525.5,155.37,514.282l-17.336-11.75-16.472-12.25L106,477.5l-14.551-13.25L77.814,450.5l-12.63-14.125L53.659,421.814l-10.517-15L33.778,391.47l-8.212-15.688-7.107-16-5.836-16.35L7.965,326.8,4.651,309.9l-2.017-17.16L2.01,275.4l.24-11.57.96-11.46,1.441-11.38,2.065-11.25,2.641-11.13,3.218-11,3.7-10.906,4.274-10.75,4.8-10.625,5.331-10.469,5.859-10.312,6.291-10.156,6.819-10,7.3-9.812,7.78-9.625,8.212-9.469,8.74-9.25,9.076-9.062,9.6-8.906,9.941-8.625,10.421-8.437,10.757-8.281,11.189-7.969,11.573-7.75,11.909-7.531,12.342-7.281,12.678-7,13.014-6.781,13.35-6.469L220.068,1h-1.875Z" transform="translate(-0.014 0.365)" fill="#fff" stroke="#87BB55" stroke-width="2" opacity="0.06"/>
</svg>
